<?xml version="1.0" encoding="UTF-8" standalone="no"?><!DOCTYPE svg PUBLIC "-//W3C//DTD SVG 1.1//EN" "http://www.w3.org/Graphics/SVG/1.1/DTD/svg11.dtd"><svg width="100%" height="100%" viewBox="0 0 267 267" version="1.1" xmlns="http://www.w3.org/2000/svg" xmlns:xlink="http://www.w3.org/1999/xlink" xml:space="preserve" xmlns:serif="http://www.serif.com/" style="fill-rule:evenodd;clip-rule:evenodd;stroke-linejoin:round;stroke-miterlimit:2;"><path d="M266.667,50l0,166.667c0,27.596 -22.404,50 -50,50l-166.667,0c-27.596,0 -50,-22.404 -50,-50l0,-166.667c0,-27.596 22.404,-50 50,-50l166.667,0c27.596,0 50,22.404 50,50Z" style="fill:#1a1814;"/><path d="M133.333,0l83.333,0c27.613,0 50,22.388 50,50l0,166.667c0,27.613 -22.387,50 -50,50l-83.333,0l0,-266.667Z" style="fill:#b8512a;fill-rule:nonzero;"/><text x="28.931px" y="183.333px" style="font-family:'Helvetica-Bold', 'Helvetica';font-weight:700;font-size:129.868px;fill:#f6f4ef;">N</text><text x="141.346px" y="183.333px" style="font-family:'Helvetica-Bold', 'Helvetica';font-weight:700;font-size:129.868px;fill:#f6f4ef;">B</text></svg>